<svg width="36" height="35" viewBox="0 0 36 35" fill="none" xmlns="http://www.w3.org/2000/svg">
<g clip-path="url(#clip0_502_1066)">
<path d="M29.8949 0H5.95488C2.66879 0 0.00488281 2.66391 0.00488281 5.95V28.994C0.00488281 32.2801 2.66879 34.944 5.95488 34.944H29.8949C33.181 34.944 35.8449 32.2801 35.8449 28.994V5.95C35.8449 2.66391 33.181 0 29.8949 0Z" fill="#330000"/>
<path d="M17.3727 20.9706H11.8189L10.6889 24.4808C10.6735 24.5449 10.6363 24.6015 10.5836 24.641C10.5309 24.6805 10.4661 24.7004 10.4003 24.6973H7.5873C7.427 24.6973 7.37086 24.6091 7.41902 24.4327L12.2276 10.5842C12.2756 10.44 12.3238 10.2757 12.3718 10.0914C12.4348 9.77048 12.467 9.44456 12.468 9.11766C12.4647 9.0948 12.4668 9.07148 12.4741 9.04957C12.4814 9.02765 12.4937 9.00773 12.51 8.99139C12.5264 8.97505 12.5463 8.96274 12.5682 8.95542C12.5901 8.9481 12.6134 8.94599 12.6363 8.94924H16.4591C16.5711 8.94924 16.6352 8.98942 16.6515 9.06964L22.1091 24.4568C22.1572 24.6172 22.1091 24.6974 21.9649 24.6973H18.8392C18.7856 24.7032 18.7316 24.6894 18.6873 24.6585C18.6431 24.6275 18.6116 24.5815 18.5989 24.529L17.3727 20.9706ZM12.6844 17.9413H16.4832L16.429 17.7625L16.3421 17.4794L16.28 17.2806L16.1811 16.9676L15.9706 16.3086L15.7856 15.7244L15.3049 14.2026C15.1853 13.8243 15.0705 13.4445 14.9605 13.0633L14.8726 12.7539L14.7699 12.3881L14.6131 11.8211L14.5837 11.7142H14.5597C14.4394 12.2913 14.2929 12.8627 14.1207 13.4264L13.764 14.5739L13.5677 15.2078L13.3696 15.8496C13.3337 15.9655 13.2982 16.0801 13.2625 16.1934L13.1561 16.5291L13.0502 16.857L12.945 17.1768L12.8402 17.4885C12.8055 17.5912 12.7708 17.6924 12.7362 17.7923L12.6844 17.9413ZM25.3546 11.4978C25.1094 11.5076 24.8648 11.4656 24.637 11.3745C24.4091 11.2833 24.203 11.1451 24.0323 10.9689C23.8619 10.785 23.7297 10.5692 23.643 10.3341C23.5563 10.0989 23.517 9.84886 23.5273 9.59842C23.5186 9.3505 23.5622 9.10352 23.6555 8.87362C23.7487 8.64372 23.8893 8.43607 24.0682 8.26422C24.4134 7.93293 24.873 7.74753 25.3513 7.74664L25.4026 7.7472C25.9797 7.7472 26.4326 7.9194 26.7611 8.26408C26.927 8.44317 27.0559 8.65321 27.1404 8.88217C27.225 9.11114 27.2636 9.35453 27.2539 9.59842C27.264 9.84986 27.2235 10.1008 27.1347 10.3362C27.0459 10.5717 26.9107 10.7869 26.7371 10.969C26.5618 11.1418 26.3537 11.2777 26.1251 11.3689C25.8965 11.46 25.652 11.5044 25.4059 11.4996L25.3546 11.4978ZM23.6956 24.4568V12.9644C23.6956 12.8202 23.7594 12.748 23.8879 12.748H26.8453C26.9734 12.748 27.0375 12.8201 27.0376 12.9644V24.4568C27.0376 24.6172 26.9735 24.6974 26.8453 24.6973H23.912C23.7754 24.6973 23.7034 24.6253 23.6963 24.4814L23.6956 24.4568Z" fill="#FF9A00"/>
</g>
<defs>
<clipPath id="clip0_502_1066">
<rect width="35.85" height="35" fill="white"/>
</clipPath>
</defs>
</svg>
