<svg width="44" height="35" viewBox="0 0 44 35" fill="none" xmlns="http://www.w3.org/2000/svg">
<g clip-path="url(#clip0_502_1069)">
<path d="M9.12704 0C6.62094 0 4.76645 2.19351 4.84949 4.5723C4.92927 6.8576 4.82564 9.81767 4.08052 12.2315C3.33317 14.6523 2.06905 16.1858 0.00439453 16.3827V18.6056C2.06905 18.8025 3.33317 20.336 4.08052 22.757C4.82564 25.1708 4.92927 28.1306 4.84949 30.416C4.76645 32.7945 6.62094 34.9883 9.12739 34.9883H34.8066C37.3129 34.9883 39.1668 32.7948 39.0838 30.416C39.0042 28.1307 39.1076 25.1708 39.8528 22.757C40.6006 20.3362 41.8613 18.8024 43.926 18.6056V16.3827C41.8613 16.1858 40.6006 14.6523 39.8529 12.2315C39.1076 9.81802 39.0042 6.85777 39.0838 4.5723C39.1668 2.19385 37.3129 0 34.8066 0H9.1267H9.12704ZM29.7818 21.5375C29.7818 24.8131 27.3387 26.7995 23.2842 26.7995H16.382C16.1846 26.7995 15.9953 26.721 15.8557 26.5814C15.7161 26.4418 15.6377 26.2525 15.6377 26.0551V8.93324C15.6377 8.83546 15.6569 8.73864 15.6943 8.6483C15.7317 8.55796 15.7866 8.47587 15.8557 8.40673C15.9248 8.33758 16.0069 8.28273 16.0972 8.24531C16.1876 8.20789 16.2844 8.18863 16.3822 8.18863H23.2447C26.6255 8.18863 28.8442 10.0201 28.8442 12.8318C28.8442 14.8053 27.3516 16.5722 25.4501 16.8815V16.9846C28.0389 17.2686 29.7818 19.0613 29.7818 21.5375ZM22.5314 10.5486H18.5961V16.1074H21.9108C24.473 16.1074 25.886 15.0756 25.886 13.2312C25.886 11.503 24.6708 10.5486 22.5314 10.5486ZM18.5963 18.3131V24.4389H22.6765C25.3441 24.4389 26.7574 23.3685 26.7574 21.3567C26.7574 19.3445 25.3048 18.3127 22.5049 18.3127H18.5963V18.3131Z" fill="#7E13F8"/>
</g>
<defs>
<clipPath id="clip0_502_1069">
<rect width="43.93" height="35" fill="white"/>
</clipPath>
</defs>
</svg>
