<svg width="35" height="35" viewBox="0 0 35 35" fill="none" xmlns="http://www.w3.org/2000/svg">
<path d="M21 9.625C20.5359 9.625 20.0908 9.80937 19.7626 10.1376C19.4344 10.4658 19.25 10.9109 19.25 11.375C19.25 11.8391 19.4344 12.2842 19.7626 12.6124C20.0908 12.9406 20.5359 13.125 21 13.125C21.4641 13.125 21.9092 12.9406 22.2374 12.6124C22.5656 12.2842 22.75 11.8391 22.75 11.375C22.75 10.9109 22.5656 10.4658 22.2374 10.1376C21.9092 9.80937 21.4641 9.625 21 9.625ZM12.25 11.375C12.25 10.9109 12.4344 10.4658 12.7626 10.1376C13.0908 9.80937 13.5359 9.625 14 9.625C14.4641 9.625 14.9092 9.80937 15.2374 10.1376C15.5656 10.4658 15.75 10.9109 15.75 11.375C15.75 11.8391 15.5656 12.2842 15.2374 12.6124C14.9092 12.9406 14.4641 13.125 14 13.125C13.5359 13.125 13.0908 12.9406 12.7626 12.6124C12.4344 12.2842 12.25 11.8391 12.25 11.375ZM18.375 4.375C18.375 4.14294 18.2828 3.92038 18.1187 3.75628C17.9546 3.59219 17.7321 3.5 17.5 3.5C17.2679 3.5 17.0454 3.59219 16.8813 3.75628C16.7172 3.92038 16.625 4.14294 16.625 4.375V5.25H11.375C10.6788 5.25 10.0111 5.52656 9.51884 6.01884C9.02656 6.51113 8.75 7.17881 8.75 7.875V14.875C8.75 15.5712 9.02656 16.2389 9.51884 16.7312C10.0111 17.2234 10.6788 17.5 11.375 17.5H23.625C24.3212 17.5 24.9889 17.2234 25.4812 16.7312C25.9734 16.2389 26.25 15.5712 26.25 14.875V7.875C26.25 7.17881 25.9734 6.51113 25.4812 6.01884C24.9889 5.52656 24.3212 5.25 23.625 5.25H18.375V4.375ZM11.375 7H23.625C23.8571 7 24.0796 7.09219 24.2437 7.25628C24.4078 7.42038 24.5 7.64294 24.5 7.875V14.875C24.5 15.1071 24.4078 15.3296 24.2437 15.4937C24.0796 15.6578 23.8571 15.75 23.625 15.75H11.375C11.1429 15.75 10.9204 15.6578 10.7563 15.4937C10.5922 15.3296 10.5 15.1071 10.5 14.875V7.875C10.5 7.64294 10.5922 7.42038 10.7563 7.25628C10.9204 7.09219 11.1429 7 11.375 7ZM17.9375 31.4965C22.5155 31.4387 25.2787 30.4553 26.901 28.9765C28.4322 27.5765 28.8068 25.8667 28.8663 24.5035H28.875V23.296C28.8745 22.4562 28.5406 21.651 27.9466 21.0574C27.3527 20.4637 26.5473 20.1303 25.7075 20.1303H20.125V20.125H14.875V20.1303H9.2925C7.5425 20.1303 6.125 21.5477 6.125 23.2977V24.5035H6.13375C6.19325 25.8685 6.56775 27.5782 8.099 28.9747C9.72125 30.4552 12.4845 31.4387 17.0625 31.4965V31.5H17.9375V31.4965ZM9.2925 21.8803H25.7075C26.0834 21.8803 26.444 22.0296 26.7098 22.2954C26.9757 22.5613 27.125 22.9218 27.125 23.2977V24.0625C27.125 25.27 26.8958 26.6105 25.7215 27.6833C24.5175 28.7805 22.155 29.75 17.5 29.75C12.845 29.75 10.4825 28.7805 9.2785 27.6833C8.106 26.6105 7.875 25.2682 7.875 24.0625V23.296C7.87546 22.9204 8.02501 22.5603 8.29079 22.2948C8.55658 22.0294 8.91686 21.8803 9.2925 21.8803Z" fill="white"/>
</svg>
