<svg width="25" height="35" viewBox="0 0 25 35" fill="none" xmlns="http://www.w3.org/2000/svg">
<g clip-path="url(#clip0_502_1043)">
<path d="M12.3947 34.9116L2.29392 32.1075L0.0429688 6.86096H24.7766L22.5233 32.1036L12.3947 34.9116Z" fill="#264DE4"/>
<path d="M20.5946 30.4962L22.5201 8.92517H12.4102V32.7652L20.5946 30.4962Z" fill="#2965F1"/>
<path d="M5.20318 18.2888L5.48066 21.3852H12.4098V18.2888H5.20318ZM4.64551 12.0217L4.92696 15.1181H12.4098V12.0217H4.64551ZM12.4098 26.3305L12.3962 26.3341L8.94779 25.4029L8.72732 22.9334H5.61901L6.05278 27.7952L12.3955 29.5559L12.4098 29.552V26.3305Z" fill="#EBEBEB"/>
<path d="M19.597 18.2888L20.1559 12.0217H12.3995V15.1181H16.7626L16.4808 18.2888H12.3995V21.3852H16.2124L15.8529 25.401L12.3994 26.3331V29.5544L18.7472 27.7952L18.7937 27.2721L19.5215 19.1203L19.597 18.2888Z" fill="white"/>
</g>
<defs>
<clipPath id="clip0_502_1043">
<rect width="24.82" height="35" fill="white"/>
</clipPath>
</defs>
</svg>
