<svg width="35" height="35" viewBox="0 0 35 35" fill="none" xmlns="http://www.w3.org/2000/svg">
<path d="M4.80687 30.0446L14.0877 20.7638M25.7748 16.6367L22.9967 24.971C22.9523 25.1046 22.8764 25.2256 22.7754 25.3236C22.6743 25.4216 22.5511 25.4937 22.4163 25.534L5.38583 30.5958C5.2324 30.6414 5.06941 30.644 4.9146 30.6034C4.75979 30.5628 4.61909 30.4804 4.50781 30.3654C4.39653 30.2504 4.31893 30.107 4.28347 29.9509C4.248 29.7949 4.25603 29.632 4.30667 29.4802L9.83667 12.8931C9.8763 12.774 9.94109 12.6649 10.0266 12.573C10.1122 12.4812 10.2165 12.4088 10.3325 12.3608L18.1885 9.12626C18.3483 9.0603 18.5239 9.0431 18.6934 9.07684C18.8629 9.11058 19.0186 9.19374 19.1408 9.31584L25.5633 15.7413C25.6783 15.8562 25.7589 16.0008 25.7963 16.1589C25.8336 16.3171 25.8262 16.4825 25.7748 16.6367Z" stroke="white" stroke-width="2.1875" stroke-linecap="round" stroke-linejoin="round"/>
<path d="M25.9471 16.1233L30.0712 11.9977C30.618 11.4507 30.9252 10.709 30.9252 9.93561C30.9252 9.16222 30.618 8.42048 30.0712 7.87353L26.9796 4.77895C26.7087 4.50798 26.3871 4.29304 26.0332 4.14639C25.6792 3.99974 25.2999 3.92426 24.9168 3.92426C24.5336 3.92426 24.1543 3.99974 23.8003 4.14639C23.4464 4.29304 23.1248 4.50798 22.8539 4.77895L18.7298 8.90457M17.181 17.6692C16.9778 17.4661 16.7366 17.305 16.4712 17.1951C16.2057 17.0852 15.9212 17.0287 15.6339 17.0288C15.3467 17.0288 15.0622 17.0855 14.7968 17.1955C14.5314 17.3055 14.2903 17.4667 14.0872 17.6699C13.8841 17.8731 13.723 18.1143 13.6131 18.3797C13.5032 18.6452 13.4467 18.9297 13.4468 19.217C13.4468 19.5043 13.5035 19.7887 13.6135 20.0541C13.7235 20.3195 13.8847 20.5606 14.0879 20.7637C14.4983 21.1739 15.0548 21.4043 15.635 21.4041C16.2152 21.404 16.7716 21.1734 17.1818 20.763C17.5919 20.3526 17.8223 19.7961 17.8221 19.2159C17.822 18.6357 17.5914 18.0793 17.181 17.6692Z" stroke="white" stroke-width="2.1875" stroke-linecap="round" stroke-linejoin="round"/>
</svg>
