<svg width="24" height="35" viewBox="0 0 24 35" fill="none" xmlns="http://www.w3.org/2000/svg">
<g clip-path="url(#clip0_502_1055)">
<path d="M5.83675 35C9.05675 35 11.6701 32.3866 11.6701 29.1666V23.3333H5.83675C2.61675 23.3333 0.00341797 25.9466 0.00341797 29.1666C0.00341797 32.3866 2.61675 35 5.83675 35Z" fill="#0ACF83"/>
<path d="M0.00341797 17.5C0.00341797 14.28 2.61675 11.6667 5.83675 11.6667H11.6701V23.3334H5.83675C2.61675 23.3334 0.00341797 20.72 0.00341797 17.5Z" fill="#A259FF"/>
<path d="M0.00341797 5.83333C0.00341797 2.61333 2.61675 0 5.83675 0H11.6701V11.6667H5.83675C2.61675 11.6667 0.00341797 9.05333 0.00341797 5.83333Z" fill="#F24E1E"/>
<path d="M11.6699 0H17.5033C20.7233 0 23.3366 2.61333 23.3366 5.83333C23.3366 9.05333 20.7233 11.6667 17.5033 11.6667H11.6699V0Z" fill="#FF7262"/>
<path d="M23.3366 17.5C23.3366 20.72 20.7233 23.3334 17.5033 23.3334C14.2833 23.3334 11.6699 20.72 11.6699 17.5C11.6699 14.28 14.2833 11.6667 17.5033 11.6667C20.7233 11.6667 23.3366 14.28 23.3366 17.5Z" fill="#1ABCFE"/>
</g>
<defs>
<clipPath id="clip0_502_1055">
<rect width="23.34" height="35" fill="white"/>
</clipPath>
</defs>
</svg>
