<svg width="25" height="25" viewBox="0 0 25 25" fill="none" xmlns="http://www.w3.org/2000/svg">
<path d="M12.5002 2.08331C11.1322 2.08331 9.77769 2.35275 8.51388 2.87623C7.25007 3.39972 6.10174 4.16701 5.13447 5.13428C3.18096 7.08779 2.0835 9.73731 2.0835 12.5C2.0835 17.1041 5.07308 21.0104 9.2085 22.3958C9.72933 22.4791 9.896 22.1562 9.896 21.875V20.1146C7.01058 20.7396 6.396 18.7187 6.396 18.7187C5.91683 17.5104 5.23975 17.1875 5.23975 17.1875C4.29183 16.5416 5.31266 16.5625 5.31266 16.5625C6.35433 16.6354 6.90641 17.6354 6.90641 17.6354C7.81266 19.2187 9.34391 18.75 9.93766 18.5C10.0314 17.8229 10.3022 17.3646 10.5939 17.1041C8.28141 16.8437 5.85433 15.9479 5.85433 11.9791C5.85433 10.8229 6.25016 9.89581 6.92725 9.15623C6.82308 8.89581 6.4585 7.81248 7.03141 6.40623C7.03141 6.40623 7.90641 6.12498 9.896 7.46873C10.7189 7.23956 11.6147 7.12498 12.5002 7.12498C13.3856 7.12498 14.2814 7.23956 15.1043 7.46873C17.0939 6.12498 17.9689 6.40623 17.9689 6.40623C18.5418 7.81248 18.1772 8.89581 18.0731 9.15623C18.7502 9.89581 19.146 10.8229 19.146 11.9791C19.146 15.9583 16.7085 16.8333 14.3856 17.0937C14.7606 17.4166 15.1043 18.0521 15.1043 19.0208V21.875C15.1043 22.1562 15.271 22.4896 15.8022 22.3958C19.9377 21 22.9168 17.1041 22.9168 12.5C22.9168 11.132 22.6474 9.7775 22.1239 8.51369C21.6004 7.24989 20.8331 6.10156 19.8659 5.13428C18.8986 4.16701 17.7503 3.39972 16.4864 2.87623C15.2226 2.35275 13.8681 2.08331 12.5002 2.08331Z" fill="white"/>
</svg>
