<svg width="25" height="35" viewBox="0 0 25 35" fill="none" xmlns="http://www.w3.org/2000/svg">
<g clip-path="url(#clip0_502_1037)">
<path d="M24.7766 6.86096L22.5233 32.1036L12.3947 34.9116L2.29392 32.1075L0.0429688 6.86096H24.7766Z" fill="#E44D26"/>
<path d="M12.4102 32.7652L20.5946 30.4962L22.5201 8.92517H12.4102V32.7652Z" fill="#F16529"/>
<path d="M8.02946 15.1181H12.4098V12.0217H4.64551L4.71958 12.8524L5.48066 21.3852H12.4098V18.2888H8.31246L8.02946 15.1181ZM8.72732 22.9334H5.61901L6.05278 27.7952L12.3955 29.5559L12.4098 29.552V26.3305L12.3962 26.3341L8.94779 25.4029L8.72732 22.9334Z" fill="#EBEBEB"/>
<path d="M12.3995 21.3852H16.2124L15.8529 25.401L12.3994 26.3331V29.5544L18.7472 27.7952L18.7937 27.2721L19.5215 19.1203L19.597 18.2888H12.3995V21.3852ZM12.3995 15.1105V15.1181H19.8787L19.9408 14.4221L20.082 12.8524L20.1559 12.0217H12.3995V15.1105Z" fill="white"/>
</g>
<defs>
<clipPath id="clip0_502_1037">
<rect width="24.82" height="35" fill="white"/>
</clipPath>
</defs>
</svg>
