<svg width="26" height="26" viewBox="0 0 26 26" fill="none" xmlns="http://www.w3.org/2000/svg">
<path d="M8.62516 2.58331H17.3752C20.7085 2.58331 23.4168 5.29165 23.4168 8.62498V17.375C23.4168 18.9773 22.7803 20.5141 21.6473 21.6471C20.5142 22.7801 18.9775 23.4166 17.3752 23.4166H8.62516C5.29183 23.4166 2.5835 20.7083 2.5835 17.375V8.62498C2.5835 7.02263 3.22003 5.48591 4.35306 4.35288C5.48609 3.21984 7.02281 2.58331 8.62516 2.58331ZM8.41683 4.66665C7.42227 4.66665 6.46844 5.06173 5.76518 5.765C5.06192 6.46826 4.66683 7.42209 4.66683 8.41665V17.5833C4.66683 19.6562 6.34391 21.3333 8.41683 21.3333H17.5835C18.5781 21.3333 19.5319 20.9382 20.2351 20.235C20.9384 19.5317 21.3335 18.5779 21.3335 17.5833V8.41665C21.3335 6.34373 19.6564 4.66665 17.5835 4.66665H8.41683ZM18.4689 6.22915C18.8142 6.22915 19.1454 6.36633 19.3896 6.61052C19.6338 6.85471 19.771 7.1859 19.771 7.53123C19.771 7.87656 19.6338 8.20775 19.3896 8.45194C19.1454 8.69613 18.8142 8.83331 18.4689 8.83331C18.1236 8.83331 17.7924 8.69613 17.5482 8.45194C17.304 8.20775 17.1668 7.87656 17.1668 7.53123C17.1668 7.1859 17.304 6.85471 17.5482 6.61052C17.7924 6.36633 18.1236 6.22915 18.4689 6.22915ZM13.0002 7.79165C14.3815 7.79165 15.7063 8.34038 16.683 9.31713C17.6598 10.2939 18.2085 11.6186 18.2085 13C18.2085 14.3813 17.6598 15.7061 16.683 16.6828C15.7063 17.6596 14.3815 18.2083 13.0002 18.2083C11.6188 18.2083 10.2941 17.6596 9.31732 16.6828C8.34056 15.7061 7.79183 14.3813 7.79183 13C7.79183 11.6186 8.34056 10.2939 9.31732 9.31713C10.2941 8.34038 11.6188 7.79165 13.0002 7.79165ZM13.0002 9.87498C12.1714 9.87498 11.3765 10.2042 10.7905 10.7903C10.2044 11.3763 9.87516 12.1712 9.87516 13C9.87516 13.8288 10.2044 14.6236 10.7905 15.2097C11.3765 15.7957 12.1714 16.125 13.0002 16.125C13.829 16.125 14.6238 15.7957 15.2099 15.2097C15.7959 14.6236 16.1252 13.8288 16.1252 13C16.1252 12.1712 15.7959 11.3763 15.2099 10.7903C14.6238 10.2042 13.829 9.87498 13.0002 9.87498Z" fill="white"/>
</svg>
