<svg width="35" height="35" viewBox="0 0 35 35" fill="none" xmlns="http://www.w3.org/2000/svg">
<path d="M2.1875 2.1875H32.8125V32.8125H2.1875V2.1875Z" fill="#F5DE19"/>
<path d="M22.7597 26.1133C23.0206 26.6433 23.426 27.0888 23.9292 27.3984C24.4323 27.708 25.0127 27.8692 25.6035 27.8633C26.7956 27.8633 27.558 27.2672 27.558 26.4414C27.558 25.457 26.7749 25.1048 25.4624 24.5306L24.7427 24.2222C22.6646 23.3373 21.2864 22.2293 21.2864 19.8865C21.2864 17.7286 22.9271 16.0847 25.5006 16.0847C26.3338 16.0245 27.1661 16.211 27.894 16.6208C28.6218 17.0306 29.2129 17.6456 29.5935 18.3892L27.3436 19.8275C27.1971 19.4588 26.9419 19.1434 26.612 18.923C26.2821 18.7027 25.893 18.5878 25.4963 18.5937C25.3232 18.5764 25.1484 18.5953 24.9831 18.6493C24.8177 18.7032 24.6654 18.791 24.5358 18.9071C24.4063 19.0232 24.3023 19.165 24.2306 19.3234C24.1589 19.4819 24.121 19.6535 24.1192 19.8275C24.1192 20.6904 24.6541 21.0404 25.8889 21.5775L26.6086 21.8859C29.0542 22.9348 30.4367 24.0034 30.4367 26.4064C30.4367 28.9975 28.4013 30.4172 25.668 30.4172C24.603 30.485 23.5411 30.2432 22.6105 29.721C21.6799 29.1987 20.9204 28.4183 20.4235 27.4739L22.7597 26.1133ZM12.5933 26.3626C13.045 27.1643 13.4563 27.8425 14.445 27.8425C15.39 27.8425 15.9872 27.4728 15.9872 26.0345V16.2487H18.8649V26.0728C18.8649 29.0522 17.1149 30.4084 14.5675 30.4084C13.6671 30.4576 12.7728 30.2332 12.0023 29.7647C11.2318 29.2962 10.6211 28.6055 10.2505 27.7834L12.5933 26.3626Z" fill="black"/>
</svg>
