<svg width="36" height="35" viewBox="0 0 36 35" fill="none" xmlns="http://www.w3.org/2000/svg">
<g clip-path="url(#clip0_502_1063)">
<path d="M29.8949 0H5.95488C2.66879 0 0.00488281 2.66391 0.00488281 5.95V28.994C0.00488281 32.2801 2.66879 34.944 5.95488 34.944H29.8949C33.181 34.944 35.8449 32.2801 35.8449 28.994V5.95C35.8449 2.66391 33.181 0 29.8949 0Z" fill="#001E36"/>
<path d="M8.0752 24.5049V9.14156C8.0752 9.02956 8.12336 8.97328 8.21954 8.97328L8.37172 8.97286L8.63184 8.97006L8.99332 8.96292L10.2043 8.9373L11.5028 8.91322C11.9595 8.90538 12.4123 8.90118 12.8611 8.90118C14.0791 8.90118 15.1049 9.0535 15.9386 9.358C16.6906 9.61238 17.3764 10.0313 17.9462 10.5841C18.4291 11.0634 18.8024 11.6417 19.0401 12.2792C19.265 12.8996 19.379 13.5547 19.3768 14.2146C19.3768 15.4971 19.0802 16.555 18.4871 17.3883C17.9071 18.2012 17.098 18.8229 16.1631 19.1741L16.0829 19.2035C15.1067 19.5676 14.0256 19.6992 12.84 19.7075L12.6557 19.7081L12.3823 19.7067L12.2444 19.7047L12.0907 19.7011L11.998 19.6974L11.9417 19.6945L11.8033 19.6894L11.634 19.6859L11.3792 19.6841L11.3225 19.684V24.4808C11.3267 24.5102 11.324 24.5402 11.3146 24.5684C11.3052 24.5966 11.2894 24.6222 11.2684 24.6432C11.2474 24.6642 11.2218 24.68 11.1936 24.6894C11.1654 24.6988 11.1355 24.7015 11.1061 24.6972H8.24362C8.1312 24.6972 8.0752 24.6334 8.0752 24.5049ZM11.3226 11.8584V16.8693C11.5145 16.8848 11.7069 16.8928 11.8994 16.8934H12.693C13.24 16.8915 13.7839 16.8101 14.3076 16.6516L14.412 16.619C14.8884 16.4775 15.314 16.202 15.6383 15.8254C15.9396 15.4701 16.0957 14.9805 16.1064 14.3566L16.1071 14.2867C16.1197 13.8216 15.9988 13.3627 15.7584 12.9644C15.5058 12.5792 15.1406 12.2812 14.7126 12.1108C14.1537 11.8936 13.5567 11.7914 12.9574 11.8104L12.6525 11.8112L12.4601 11.8129L12.2766 11.8153L12.0176 11.8203L11.8286 11.8256L11.7305 11.8293L11.5993 11.8354L11.4876 11.8423L11.4239 11.8473L11.3688 11.8527L11.3446 11.8555L11.3226 11.8584ZM28.6728 15.9582C28.2534 15.7426 27.8086 15.5807 27.3487 15.4763L27.2423 15.4533C26.7364 15.3372 26.22 15.2733 25.7011 15.2625L25.5714 15.261C25.2672 15.2527 24.9634 15.2892 24.6698 15.3692C24.4829 15.4107 24.3167 15.5172 24.2008 15.6696C24.1225 15.7916 24.0808 15.9335 24.0807 16.0784C24.0851 16.219 24.1358 16.3542 24.2249 16.463C24.3525 16.6122 24.5059 16.7373 24.6778 16.8322L24.7299 16.8598C25.0727 17.0443 25.4259 17.2089 25.7877 17.3526C26.5946 17.6227 27.3656 17.99 28.0837 18.4465C28.573 18.7553 28.9779 19.1808 29.262 19.6848C29.5008 20.162 29.6204 20.6899 29.6106 21.2234C29.6249 21.928 29.4236 22.6202 29.0335 23.2071C28.6158 23.8028 28.0358 24.2659 27.3624 24.5413C26.6573 24.8512 25.7912 25.0113 24.7645 25.0218L24.6578 25.0223C24.0213 25.0288 23.3856 24.9731 22.7599 24.856L22.6261 24.83C22.0993 24.7334 21.5865 24.5718 21.0994 24.3491C21.0504 24.3238 21.0091 24.286 20.9795 24.2395C20.95 24.193 20.9332 24.1395 20.9311 24.0845V21.4639C20.9282 21.4385 20.9323 21.4128 20.9429 21.3895C20.9535 21.3662 20.9702 21.3462 20.9913 21.3316C21.012 21.32 21.0357 21.3149 21.0593 21.317C21.0829 21.3192 21.1053 21.3285 21.1235 21.3437C21.6987 21.6829 22.3233 21.9303 22.9747 22.077C23.5489 22.221 24.1379 22.2976 24.7299 22.3055C25.2907 22.3055 25.7034 22.2332 25.968 22.089C26.0875 22.0344 26.1886 21.9462 26.259 21.8353C26.3294 21.7243 26.3662 21.5953 26.3648 21.4639C26.3648 21.2559 26.2445 21.0554 26.0042 20.8629C25.9034 20.7823 25.7587 20.6945 25.5706 20.5997L25.4806 20.5555L25.3845 20.5103L25.3341 20.4873L25.2286 20.4405C25.2102 20.4326 25.1919 20.4246 25.1735 20.4167L25.0587 20.3686L24.999 20.3441L24.8749 20.2944L24.8105 20.2692L24.6771 20.2178L24.5375 20.1656C23.7826 19.9028 23.0668 19.5389 22.4097 19.0837C21.9397 18.7568 21.5528 18.3245 21.2797 17.8214C21.0433 17.3477 20.9237 16.8242 20.9311 16.2947C20.9298 15.6586 21.1045 15.0345 21.436 14.4915C21.814 13.8937 22.3566 13.4177 22.9988 13.1212C23.704 12.7688 24.5854 12.5924 25.6434 12.5921C26.263 12.5872 26.8821 12.6314 27.4947 12.7244C27.9384 12.7807 28.3721 12.898 28.7836 13.073C28.8498 13.0921 28.9031 13.1409 28.9278 13.2053C28.9442 13.264 28.9521 13.3246 28.9519 13.3857V15.814C28.9554 15.8714 28.9278 15.9264 28.8798 15.9582C28.8476 15.9741 28.8122 15.9825 28.7763 15.9825C28.7404 15.9825 28.705 15.9741 28.6728 15.9582Z" fill="#31A8FF"/>
</g>
<defs>
<clipPath id="clip0_502_1063">
<rect width="35.85" height="35" fill="white"/>
</clipPath>
</defs>
</svg>
