<svg width="36" height="35" viewBox="0 0 36 35" fill="none" xmlns="http://www.w3.org/2000/svg">
<g clip-path="url(#clip0_502_1052)">
<path d="M17.4214 0.0098877C8.52292 0.0098877 9.07852 3.86881 9.07852 3.86881L9.08841 7.86677H17.5801V9.06706H5.71564C5.71564 9.06706 0.0214844 8.42128 0.0214844 17.3998C0.0214844 26.3786 4.99148 26.0602 4.99148 26.0602H7.95756V21.8937C7.95756 21.8937 7.79766 16.9237 12.8482 16.9237H21.2705C21.2705 16.9237 26.0023 17.0001 26.0023 12.3505V4.66255C26.0023 4.66255 26.721 0.0098877 17.4214 0.0098877ZM12.7391 2.69844C12.9398 2.69826 13.1385 2.73765 13.3239 2.81435C13.5094 2.89106 13.6778 3.00358 13.8197 3.14547C13.9616 3.28736 14.0741 3.45584 14.1508 3.64126C14.2275 3.82669 14.2669 4.02542 14.2668 4.22608C14.2669 4.42675 14.2275 4.62548 14.1508 4.8109C14.0741 4.99633 13.9616 5.16481 13.8197 5.3067C13.6778 5.44859 13.5094 5.56111 13.3239 5.63781C13.1385 5.71452 12.9398 5.75391 12.7391 5.75373C12.5384 5.75391 12.3397 5.71452 12.1543 5.63781C11.9689 5.56111 11.8004 5.44859 11.6585 5.3067C11.5166 5.16481 11.4041 4.99633 11.3274 4.8109C11.2507 4.62548 11.2113 4.42675 11.2115 4.22608C11.2113 4.02542 11.2507 3.82669 11.3274 3.64126C11.4041 3.45584 11.5166 3.28736 11.6585 3.14547C11.8004 3.00358 11.9689 2.89106 12.1543 2.81435C12.3397 2.73765 12.5384 2.69826 12.7391 2.69844Z" fill="url(#paint0_linear_502_1052)"/>
<path d="M17.674 34.8801C26.5725 34.8801 26.0169 31.0211 26.0169 31.0211L26.007 27.0233H17.5152V25.823H29.3796C29.3796 25.823 35.0738 26.4688 35.0738 17.49C35.0738 8.51133 30.1038 8.82977 30.1038 8.82977H27.1377V12.9961C27.1377 12.9961 27.2976 17.9661 22.247 17.9661H13.8248C13.8248 17.9661 9.09295 17.8897 9.09295 22.5395V30.2275C9.09295 30.2275 8.37442 34.8801 17.6739 34.8801M22.3562 32.1918C22.1555 32.192 21.9568 32.1526 21.7713 32.0759C21.5859 31.9992 21.4174 31.8866 21.2756 31.7448C21.1337 31.6029 21.0211 31.4344 20.9444 31.249C20.8677 31.0635 20.8283 30.8648 20.8285 30.6641C20.8283 30.4635 20.8677 30.2647 20.9444 30.0793C21.0211 29.8938 21.1336 29.7253 21.2755 29.5834C21.4174 29.4415 21.5859 29.329 21.7713 29.2523C21.9567 29.1756 22.1555 29.1362 22.3562 29.1364C22.5568 29.1362 22.7556 29.1756 22.941 29.2523C23.1264 29.329 23.2949 29.4415 23.4368 29.5834C23.5787 29.7253 23.6912 29.8938 23.7679 30.0792C23.8446 30.2646 23.884 30.4633 23.8838 30.664C23.884 30.8647 23.8446 31.0634 23.7679 31.2488C23.6912 31.4342 23.5787 31.6027 23.4368 31.7446C23.2949 31.8865 23.1264 31.999 22.941 32.0757C22.7556 32.1524 22.5568 32.192 22.3562 32.1918Z" fill="url(#paint1_linear_502_1052)"/>
</g>
<defs>
<linearGradient id="paint0_linear_502_1052" x1="336.874" y1="313.646" x2="2073.97" y2="2033.41" gradientUnits="userSpaceOnUse">
<stop stop-color="#387EB8"/>
<stop offset="1" stop-color="#366994"/>
</linearGradient>
<linearGradient id="paint1_linear_502_1052" x1="506.288" y1="544.946" x2="2371.72" y2="2308.4" gradientUnits="userSpaceOnUse">
<stop stop-color="#FFE052"/>
<stop offset="1" stop-color="#FFC331"/>
</linearGradient>
<clipPath id="clip0_502_1052">
<rect width="35.14" height="35" fill="white"/>
</clipPath>
</defs>
</svg>
