<svg width="35" height="35" viewBox="0 0 35 35" fill="none" xmlns="http://www.w3.org/2000/svg">
<path d="M2.9165 10.2083V7.29167C2.9165 6.48958 3.20234 5.80319 3.774 5.2325C4.34567 4.66181 5.03206 4.37597 5.83317 4.375H29.1665C29.9686 4.375 30.6555 4.66083 31.2271 5.2325C31.7988 5.80417 32.0841 6.49056 32.0832 7.29167V10.2083H29.1665V7.29167H5.83317V10.2083H2.9165ZM11.6665 30.625V27.7083H5.83317C5.03109 27.7083 4.3447 27.423 3.774 26.8523C3.20331 26.2816 2.91748 25.5947 2.9165 24.7917V21.875H5.83317V24.7917H29.1665V21.875H32.0832V24.7917C32.0832 25.5938 31.7978 26.2806 31.2271 26.8523C30.6564 27.424 29.9696 27.7093 29.1665 27.7083H23.3332V30.625H11.6665ZM6.99984 16.0417L10.7915 12.25L8.74984 10.2083L2.9165 16.0417L8.74984 21.875L10.7915 19.8333L6.99984 16.0417ZM27.9998 16.0417L24.2082 19.8333L26.2498 21.875L32.0832 16.0417L26.2498 10.2083L24.2082 12.25L27.9998 16.0417Z" fill="white"/>
</svg>
