<svg width="25" height="25" viewBox="0 0 25 25" fill="none" xmlns="http://www.w3.org/2000/svg">
<path d="M12.5011 20.8333C14.7113 20.8333 16.8309 19.9553 18.3937 18.3925C19.9565 16.8297 20.8345 14.7101 20.8345 12.5C20.8345 10.2898 19.9565 8.17023 18.3937 6.60742C16.8309 5.04462 14.7113 4.16665 12.5011 4.16665C10.291 4.16665 8.17139 5.04462 6.60858 6.60742C5.04578 8.17023 4.16781 10.2898 4.16781 12.5C4.16781 14.7101 5.04578 16.8297 6.60858 18.3925C8.17139 19.9553 10.291 20.8333 12.5011 20.8333ZM12.5011 22.9166C6.74801 22.9166 2.08447 18.2531 2.08447 12.5C2.08447 6.74686 6.74801 2.08331 12.5011 2.08331C18.2543 2.08331 22.9178 6.74686 22.9178 12.5C22.9178 18.2531 18.2543 22.9166 12.5011 22.9166ZM9.26156 13.7187L6.65947 12.9073C6.09697 12.7354 6.09385 12.3479 6.78551 12.0698L16.9241 8.15311C17.5116 7.91352 17.847 8.21665 17.6564 8.97602L15.9293 17.1219C15.8084 17.7021 15.4595 17.8406 14.9751 17.5729L12.3178 15.6062L11.0793 16.8021C10.9522 16.925 10.8491 17.0302 10.6532 17.0562C10.4584 17.0833 10.298 17.025 10.1803 16.7021L9.27406 13.7114L9.26156 13.7187Z" fill="white"/>
</svg>
